<svg width="108" height="17" viewBox="0 0 108 17" fill="none" xmlns="http://www.w3.org/2000/svg">
<path d="M13.0766 9.14215L9.32414 15.5689L5.57171 9.14215H13.0766ZM14.0819 8.56775H4.56238L9.32414 16.7056L14.0819 8.56775Z" fill="#263238"/>
<path d="M19.6007 1.14878L23.3531 7.57551H15.8482L19.6007 1.14878ZM19.6007 0L14.8389 8.13785H24.3624L19.6007 0Z" fill="#263238"/>
<path d="M0 0L3.99259 7.19795L8.35551 0.180742L0 0Z" fill="#4CAF4F"/>
<path d="M9.32425 0.630615L13.5122 7.7884H5.12817L9.32425 0.630615Z" fill="#4CAF4F"/>
<path d="M14.5906 9.35107L18.7827 16.7057H10.1992L14.4604 9.35107H14.5906Z" fill="#4CAF4F"/>
<path d="M15.4982 8.90515L19.6006 16.1473L23.7601 8.90515H15.4982Z" fill="#4CAF4F"/>
<path d="M41.787 1.16174V15.3362H39.1984L33.0317 6.41489H32.9279V15.3362H29.931V1.16174H32.5611L38.6794 10.0762H38.8039V1.16174H41.787Z" fill="#263238"/>
<path d="M49.0524 15.5439C47.9589 15.5439 47.0176 15.3224 46.2286 14.8795C45.4442 14.4319 44.8398 13.7998 44.4153 12.9831C43.9908 12.1618 43.7785 11.1905 43.7785 10.0693C43.7785 8.97572 43.9908 8.01598 44.4153 7.19006C44.8398 6.36414 45.4373 5.72047 46.2078 5.25906C46.983 4.79765 47.892 4.56695 48.9348 4.56695C49.6361 4.56695 50.289 4.67999 50.8934 4.90608C51.5025 5.12756 52.0331 5.46208 52.4853 5.90965C52.9421 6.35722 53.2974 6.92014 53.5512 7.59841C53.8049 8.27207 53.9318 9.06108 53.9318 9.96544V10.7752H44.9551V8.94803H51.1565C51.1565 8.52354 51.0642 8.14749 50.8796 7.81989C50.695 7.49228 50.439 7.2362 50.1114 7.05164C49.7884 6.86246 49.4123 6.76787 48.9832 6.76787C48.5356 6.76787 48.1388 6.87169 47.7928 7.07932C47.4513 7.28234 47.1837 7.55688 46.9899 7.90294C46.7961 8.24438 46.6969 8.62504 46.6923 9.04493V10.7821C46.6923 11.3081 46.7892 11.7626 46.983 12.1456C47.1814 12.5286 47.4606 12.8239 47.8205 13.0315C48.1804 13.2391 48.6072 13.343 49.1009 13.343C49.4285 13.343 49.7284 13.2968 50.0006 13.2045C50.2729 13.1123 50.5059 12.9738 50.6997 12.7893C50.8934 12.6047 51.0411 12.3786 51.1426 12.111L53.8695 12.2909C53.7311 12.9461 53.4474 13.5183 53.0182 14.0074C52.5937 14.4919 52.0447 14.8702 51.371 15.1425C50.702 15.4101 49.9291 15.5439 49.0524 15.5439Z" fill="#263238"/>
<path d="M58.1295 4.70537L60.0813 8.42202L62.0815 4.70537H65.106L62.0261 10.0208L65.1891 15.3362H62.1784L60.0813 11.6611L58.0188 15.3362H54.9735L58.1295 10.0208L55.0842 4.70537H58.1295Z" fill="#263238"/>
<path d="M71.2797 15.5439C70.1908 15.5439 69.2541 15.3132 68.4697 14.8518C67.6899 14.3857 67.0901 13.7398 66.6702 12.9138C66.2549 12.0879 66.0473 11.1374 66.0473 10.0623C66.0473 8.97341 66.2572 8.01829 66.6771 7.19698C67.1016 6.37106 67.7038 5.72739 68.4835 5.26598C69.2633 4.79996 70.1908 4.56695 71.2658 4.56695C72.1933 4.56695 73.0054 4.73536 73.7021 5.07219C74.3988 5.40902 74.9502 5.88196 75.3562 6.49102C75.7623 7.10009 75.9861 7.81527 76.0276 8.63658H73.2453C73.1668 8.10596 72.9592 7.67915 72.6224 7.35617C72.2902 7.02857 71.8541 6.86477 71.3143 6.86477C70.8575 6.86477 70.4584 6.98935 70.1169 7.23851C69.7801 7.48306 69.5171 7.84065 69.3279 8.31129C69.1387 8.78193 69.0442 9.35177 69.0442 10.0208C69.0442 10.6991 69.1364 11.2758 69.321 11.7511C69.5102 12.2263 69.7755 12.5886 70.1169 12.8377C70.4584 13.0869 70.8575 13.2115 71.3143 13.2115C71.6511 13.2115 71.9533 13.1422 72.221 13.0038C72.4932 12.8654 72.717 12.6647 72.8923 12.4017C73.0723 12.1341 73.1899 11.8134 73.2453 11.4396H76.0276C75.9814 12.2517 75.76 12.9669 75.3632 13.5852C74.971 14.1989 74.4288 14.6787 73.7367 15.0248C73.0446 15.3709 72.2256 15.5439 71.2797 15.5439Z" fill="#263238"/>
<path d="M82.7601 15.5439C81.6666 15.5439 80.7253 15.3224 79.9363 14.8795C79.1519 14.4319 78.5475 13.7998 78.123 12.9831C77.6985 12.1618 77.4862 11.1905 77.4862 10.0693C77.4862 8.97572 77.6985 8.01598 78.123 7.19006C78.5475 6.36414 79.145 5.72047 79.9155 5.25906C80.6907 4.79765 81.5997 4.56695 82.6425 4.56695C83.3438 4.56695 83.9967 4.67999 84.6012 4.90608C85.2102 5.12756 85.7408 5.46208 86.193 5.90965C86.6498 6.35722 87.0051 6.92014 87.2589 7.59841C87.5127 8.27207 87.6395 9.06108 87.6395 9.96544V10.7752H78.6628V8.94803H84.8642C84.8642 8.52354 84.7719 8.14749 84.5873 7.81989C84.4027 7.49228 84.1467 7.2362 83.8191 7.05164C83.4961 6.86246 83.12 6.76787 82.6909 6.76787C82.2434 6.76787 81.8465 6.87169 81.5005 7.07932C81.159 7.28234 80.8914 7.55688 80.6976 7.90294C80.5038 8.24438 80.4046 8.62504 80.4 9.04493V10.7821C80.4 11.3081 80.4969 11.7626 80.6907 12.1456C80.8891 12.5286 81.1683 12.8239 81.5282 13.0315C81.8881 13.2391 82.3149 13.343 82.8086 13.343C83.1362 13.343 83.4361 13.2968 83.7083 13.2045C83.9806 13.1123 84.2136 12.9738 84.4074 12.7893C84.6012 12.6047 84.7488 12.3786 84.8503 12.111L87.5772 12.2909C87.4388 12.9461 87.1551 13.5183 86.7259 14.0074C86.3015 14.4919 85.7524 14.8702 85.0787 15.1425C84.4097 15.4101 83.6368 15.5439 82.7601 15.5439Z" fill="#263238"/>
<path d="M92.512 9.19027V15.3362H89.5636V4.70537H92.3736V6.581H92.4982C92.7335 5.96271 93.128 5.47362 93.6817 5.11372C94.2354 4.7492 94.9067 4.56695 95.6958 4.56695C96.434 4.56695 97.0777 4.72844 97.6267 5.05143C98.1758 5.37441 98.6026 5.83582 98.9072 6.43566C99.2117 7.03087 99.364 7.74145 99.364 8.56737V15.3362H96.4156V9.09338C96.4202 8.44279 96.2541 7.93524 95.9172 7.57072C95.5804 7.2016 95.1167 7.01703 94.5261 7.01703C94.1293 7.01703 93.7786 7.10239 93.4741 7.27311C93.1741 7.44384 92.9388 7.693 92.7681 8.0206C92.602 8.34359 92.5166 8.73348 92.512 9.19027Z" fill="#263238"/>
<path d="M107.342 4.70537V6.92014H100.94V4.70537H107.342ZM102.394 2.15839H105.342V12.0695C105.342 12.3417 105.384 12.5539 105.467 12.7062C105.55 12.8539 105.665 12.9577 105.813 13.0177C105.965 13.0777 106.14 13.1076 106.339 13.1076C106.477 13.1076 106.616 13.0961 106.754 13.073C106.892 13.0454 106.999 13.0246 107.072 13.0107L107.536 15.2047C107.388 15.2509 107.181 15.3039 106.913 15.3639C106.646 15.4285 106.32 15.4678 105.937 15.4816C105.227 15.5093 104.604 15.4147 104.069 15.1978C103.538 14.981 103.125 14.6441 102.83 14.1873C102.534 13.7305 102.389 13.1538 102.394 12.4571V2.15839Z" fill="#263238"/>
</svg>
